# xmcd
#
# Track frame offsets:
# 150
# 16045
# 30293
# 46941
# 61432
# 75511
# 91387
# 105985
# 118232
# 133524
#
# Disc length: 1983 seconds
#
#
# Revision: 2
# Processed by: cddbd v1.5.1PL2 Copyright (c) Steve Scherf et al.
# Submitted via: FreeRIP 2.943 
#
DISCID=6d07bd0a
DTITLE=Rick Trevino - Learning As You Go
DYEAR=1996
DGENRE=Country
TTITLE0=Learning As You Go
TTITLE1=Running Out Of Reasons To Run
TTITLE2=I Only Get This Way With You
TTITLE3=See Rock City
TTITLE4=Oh Jenny
TTITLE5=Serious Love
TTITLE6=I Wish He Wouldn't Treat Her That Way
TTITLE7=Anytime
TTITLE8=Mary's Just A Plain Jane
TTITLE9=I'm Here For You
EXTD=
EXTT0=
EXTT1=
EXTT2=
EXTT3=
EXTT4=
EXTT5=
EXTT6=
EXTT7=
EXTT8=
EXTT9=
PLAYORDER=
